<?xml version="1.0" encoding="utf-8" ?>
<svg baseProfile="tiny" height="100%" version="1.2" width="100%" xmlns="http://www.w3.org/2000/svg" xmlns:ev="http://www.w3.org/2001/xml-events" xmlns:xlink="http://www.w3.org/1999/xlink"><defs /><image height="793" width="586" xlink:href="Karte_Deutschland.svg" /><circle cx="0" cy="0" fill="black" r="3" /><circle cx="81.7454" cy="385.5972" fill="green" r="5" /><circle cx="399.6935" cy="615.6688" fill="green" r="5" /><circle cx="15.4138" cy="434.7136" fill="green" r="5" /><circle cx="188.5045" cy="200.6481" fill="green" r="5" /><circle cx="167.6143" cy="569.4094" fill="green" r="5" /><circle cx="126.1819" cy="719.2963" fill="green" r="5" /><circle cx="117.0741" cy="374.6569" fill="green" r="5" /><circle cx="74.0485" cy="368.1206" fill="green" r="5" /><circle cx="452.1493" cy="430.075" fill="green" r="5" /><circle cx="461.0364" cy="271.191" fill="green" r="5" /><circle cx="83.2553" cy="349.174" fill="green" r="5" /><circle cx="102.1736" cy="359.0351" fill="green" r="5" /><circle cx="142.1956" cy="146.0649" fill="green" r="5" /><circle cx="162.4246" cy="615.9902" fill="green" r="5" /><circle cx="330.0778" cy="558.1656" fill="green" r="5" /><circle cx="93.7394" cy="261.3536" fill="green" r="5" /><circle cx="260.8594" cy="293.6969" fill="green" r="5" /><circle cx="170.455" cy="306.9886" fill="green" r="5" /><circle cx="354.9008" cy="147.6856" fill="green" r="5" /><circle cx="70.7771" cy="592.1661" fill="green" r="5" /><circle cx="136.6748" cy="426.1629" fill="green" r="5" /><circle cx="365.404" cy="420.0308" fill="green" r="5" /><circle cx="246.3261" cy="273.0196" fill="green" r="5" /><circle cx="150.4345" cy="194.2755" fill="green" r="5" /><circle cx="368.3957" cy="298.698" fill="green" r="5" /><circle cx="78.6237" cy="439.3528" fill="green" r="5" /><circle cx="259.317" cy="534.9455" fill="green" r="5" /><circle cx="260.7333" cy="357.229" fill="green" r="5" /><circle cx="320.9232" cy="682.1413" fill="green" r="5" /><circle cx="571.3649" cy="423.262" fill="green" r="5" /><circle cx="153.1834" cy="756.3874" fill="green" r="5" /><circle cx="297.5468" cy="282.4907" fill="green" r="5" /><circle cx="113.2472" cy="316.6318" fill="green" r="5" /><circle cx="186.1462" cy="431.5539" fill="green" r="5" /><circle cx="321.3031" cy="524.7402" fill="green" r="5" /><circle cx="352.5687" cy="640.0333" fill="green" r="5" /><circle cx="231.2983" cy="380.3748" fill="green" r="5" /><circle cx="325.0073" cy="487.3747" fill="green" r="5" /><circle cx="243.6192" cy="457.7786" fill="green" r="5" /><circle cx="307.1407" cy="120.399" fill="green" r="5" /><circle cx="213.089" cy="741.7894" fill="green" r="5" /><circle cx="215.3923" cy="639.4033" fill="green" r="5" /><circle cx="263.6082" cy="678.1875" fill="green" r="5" /><circle cx="165.5607" cy="711.9769" fill="green" r="5" /><circle cx="116.6707" cy="358.2055" fill="green" r="5" /><circle cx="422.7948" cy="441.0878" fill="green" r="5" /><circle cx="284.0925" cy="509.1953" fill="green" r="5" /><circle cx="260.7567" cy="152.476" fill="green" r="5" /><circle cx="67.4353" cy="417.7089" fill="green" r="5" /><circle cx="330.6063" cy="415.0586" fill="green" r="5" /><circle cx="363.6081" cy="702.68" fill="green" r="5" /><circle cx="391.5893" cy="363.8922" fill="green" r="5" /><circle cx="55.705" cy="392.2859" fill="green" r="5" /><circle cx="227.9788" cy="25.6804" fill="green" r="5" /><circle cx="85.7918" cy="363.1595" fill="green" r="5" /><circle cx="502.4319" cy="407.3014" fill="green" r="5" /><circle cx="329.987" cy="569.5186" fill="green" r="5" /><circle cx="485.0046" cy="259.2276" fill="green" r="5" /></svg>